<svg width="288" height="109" viewBox="0 0 288 109" fill="none" xmlns="http://www.w3.org/2000/svg">
<g clip-path="url(#clip0_116_92)">
<path d="M48.2802 80.533C44.4402 80.533 40.8135 79.813 37.4002 78.373C34.0402 76.8797 31.0802 74.853 28.5202 72.293C26.0135 69.6797 24.0135 66.6663 22.5202 63.253C21.0802 59.8397 20.3602 56.1597 20.3602 52.213C20.3602 48.213 21.0535 44.4797 22.4402 41.013C23.8802 37.493 25.8268 34.3997 28.2802 31.733C30.7868 29.0663 33.6935 26.9863 37.0002 25.493C40.3068 23.9997 43.8535 23.253 47.6402 23.253C51.4802 23.253 55.0802 23.9997 58.4402 25.493C61.8535 26.933 64.8135 28.9597 67.3202 31.573C69.8268 34.1863 71.8002 37.2263 73.2402 40.693C74.7335 44.1597 75.4802 47.9197 75.4802 51.973C75.4802 55.8663 74.7602 59.5463 73.3202 63.013C71.9335 66.4263 69.9868 69.4663 67.4802 72.133C64.9735 74.7463 62.0668 76.7997 58.7602 78.293C55.5068 79.7863 52.0135 80.533 48.2802 80.533ZM47.8802 68.373C50.0135 68.373 52.0135 67.9463 53.8802 67.093C55.7468 66.2397 57.3735 65.093 58.7602 63.653C60.2002 62.1597 61.2935 60.4263 62.0402 58.453C62.8402 56.4263 63.2402 54.2397 63.2402 51.893C63.2402 49.653 62.8402 47.5463 62.0402 45.573C61.2402 43.5463 60.1202 41.7863 58.6802 40.293C57.2935 38.7463 55.6668 37.5463 53.8002 36.693C51.9868 35.8397 50.0135 35.413 47.8802 35.413C45.8002 35.413 43.8268 35.8397 41.9602 36.693C40.1468 37.5463 38.5202 38.7463 37.0802 40.293C35.6935 41.7863 34.5735 43.5463 33.7202 45.573C32.9202 47.5463 32.5202 49.6797 32.5202 51.973C32.5202 54.213 32.9202 56.3463 33.7202 58.373C34.5735 60.3463 35.6935 62.0797 37.0802 63.573C38.5202 65.0663 40.1468 66.2397 41.9602 67.093C43.7735 67.9463 45.7468 68.373 47.8802 68.373ZM95.6089 79.813C94.1689 79.813 93.0489 79.5463 92.2489 79.013C91.5022 78.4797 90.9422 77.8397 90.5689 77.093C90.2489 76.3463 89.9822 75.7063 89.7689 75.173L78.4889 47.253C78.1156 45.973 77.9289 44.9063 77.9289 44.053C77.9822 43.1463 78.3022 42.3997 78.8889 41.813C79.5289 41.173 80.5156 40.613 81.8489 40.133C83.8756 39.2797 85.5289 39.0397 86.8089 39.413C88.0889 39.7863 89.0489 40.8797 89.6889 42.693L95.6089 58.773L100.889 43.973C101.102 43.4397 101.396 42.853 101.769 42.213C102.142 41.5197 102.702 40.9063 103.449 40.373C104.249 39.8397 105.316 39.573 106.649 39.573C108.089 39.573 109.209 39.8397 110.009 40.373C110.809 40.9063 111.396 41.5197 111.769 42.213C112.196 42.9063 112.489 43.493 112.649 43.973L117.929 58.773L123.529 43.653C124.276 41.6797 125.262 40.3463 126.489 39.653C127.716 38.9597 129.342 39.0397 131.369 39.893C133.236 40.693 134.516 41.6797 135.209 42.853C135.902 44.0263 135.822 45.5197 134.969 47.333L123.689 75.173C123.476 75.7597 123.182 76.4263 122.809 77.173C122.436 77.9197 121.876 78.533 121.129 79.013C120.382 79.5463 119.342 79.813 118.009 79.813C116.622 79.813 115.556 79.573 114.809 79.093C114.062 78.6663 113.476 78.0797 113.049 77.333C112.676 76.5863 112.356 75.8397 112.089 75.093L106.729 60.373L101.449 75.093C101.076 76.053 100.729 76.9063 100.409 77.653C100.089 78.3463 99.5556 78.8797 98.8089 79.253C98.1156 79.6263 97.0489 79.813 95.6089 79.813ZM145.536 79.733C143.616 79.733 142.23 79.4663 141.376 78.933C140.523 78.3463 139.99 77.5997 139.776 76.693C139.616 75.733 139.536 74.7197 139.536 73.653V27.573C139.536 26.5063 139.643 25.5197 139.856 24.613C140.07 23.7063 140.603 22.9863 141.456 22.453C142.31 21.8663 143.696 21.573 145.616 21.573C147.59 21.573 148.976 21.8663 149.776 22.453C150.63 23.0397 151.136 23.7863 151.296 24.693C151.51 25.5997 151.616 26.5863 151.616 27.653V43.973C152.576 42.9597 153.803 41.9997 155.296 41.093C156.843 40.1863 158.656 39.733 160.736 39.733C164.043 39.733 167.003 40.5863 169.616 42.293C172.283 43.9463 174.39 46.2397 175.936 49.173C177.536 52.1063 178.336 55.4663 178.336 59.253V73.733C178.336 74.7997 178.23 75.7863 178.016 76.693C177.803 77.5997 177.296 78.3463 176.496 78.933C175.696 79.4663 174.283 79.733 172.256 79.733C170.39 79.733 169.003 79.4663 168.096 78.933C167.243 78.3463 166.71 77.5997 166.496 76.693C166.336 75.733 166.256 74.7197 166.256 73.653V59.173C166.256 57.6263 165.99 56.3197 165.456 55.253C164.923 54.133 164.123 53.253 163.056 52.613C162.043 51.973 160.79 51.653 159.296 51.653C157.323 51.653 155.59 52.2663 154.096 53.493C152.656 54.6663 151.83 56.1063 151.616 57.813V73.733C151.616 74.7997 151.51 75.7863 151.296 76.693C151.083 77.5997 150.55 78.3463 149.696 78.933C148.896 79.4663 147.51 79.733 145.536 79.733ZM203.993 80.453C200.26 80.453 197.033 79.8397 194.313 78.613C191.647 77.3863 189.46 75.7863 187.753 73.813C186.047 71.7863 184.767 69.5463 183.913 67.093C183.113 64.6397 182.713 62.1863 182.713 59.733C182.713 55.733 183.62 52.1863 185.433 49.093C187.247 45.9997 189.753 43.573 192.953 41.813C196.153 39.9997 199.833 39.093 203.993 39.093C207.087 39.093 209.753 39.5997 211.993 40.613C214.287 41.573 216.153 42.853 217.593 44.453C219.087 45.9997 220.18 47.6797 220.873 49.493C221.62 51.3063 221.993 53.0397 221.993 54.693C221.993 57.6263 221.273 59.813 219.833 61.253C218.447 62.6397 216.66 63.333 214.473 63.333H195.433C195.54 64.7197 196.02 65.893 196.873 66.853C197.78 67.813 198.9 68.5597 200.233 69.093C201.567 69.6263 202.98 69.893 204.473 69.893C205.753 69.893 206.873 69.8397 207.833 69.733C208.793 69.573 209.62 69.3863 210.313 69.173C211.007 68.9063 211.647 68.6663 212.233 68.453C212.82 68.1863 213.327 67.973 213.753 67.813C214.233 67.653 214.687 67.5463 215.113 67.493C215.913 67.4397 216.633 67.6797 217.273 68.213C217.967 68.693 218.58 69.4397 219.113 70.453C219.487 71.0397 219.727 71.5997 219.833 72.133C219.993 72.6663 220.073 73.1997 220.073 73.733C220.073 75.013 219.407 76.1597 218.073 77.173C216.793 78.1863 214.953 78.9863 212.553 79.573C210.207 80.1597 207.353 80.453 203.993 80.453ZM195.433 56.773H208.073C208.927 56.773 209.54 56.6397 209.913 56.373C210.34 56.053 210.553 55.4663 210.553 54.613C210.553 53.653 210.26 52.8263 209.673 52.133C209.087 51.3863 208.287 50.8263 207.273 50.453C206.313 50.0263 205.193 49.813 203.913 49.813C202.26 49.813 200.793 50.133 199.513 50.773C198.233 51.413 197.22 52.2663 196.473 53.333C195.78 54.3997 195.433 55.5463 195.433 56.773ZM233.122 79.653C231.149 79.653 229.735 79.3863 228.882 78.853C228.082 78.2663 227.575 77.5197 227.362 76.613C227.202 75.653 227.122 74.6663 227.122 73.653V45.493C227.122 44.4797 227.229 43.5463 227.442 42.693C227.655 41.7863 228.162 41.0663 228.962 40.533C229.815 39.9997 231.229 39.733 233.202 39.733C234.909 39.733 236.162 39.973 236.962 40.453C237.762 40.8797 238.269 41.413 238.482 42.053C238.749 42.693 238.882 43.3063 238.882 43.893C238.882 44.4263 238.935 44.7997 239.042 45.013L238.562 46.533C238.669 45.733 239.069 44.933 239.762 44.133C240.509 43.2797 241.415 42.533 242.482 41.893C243.602 41.1997 244.775 40.6663 246.002 40.293C247.282 39.9197 248.535 39.733 249.762 39.733C252.322 39.733 254.589 40.213 256.562 41.173C258.589 42.0797 260.295 43.413 261.682 45.173C263.069 46.933 264.109 49.013 264.802 51.413C265.549 53.7597 265.922 56.3463 265.922 59.173V73.733C265.922 74.7463 265.815 75.733 265.602 76.693C265.442 77.5997 264.935 78.3197 264.082 78.853C263.282 79.3863 261.895 79.653 259.922 79.653C257.895 79.653 256.455 79.3863 255.602 78.853C254.802 78.2663 254.295 77.5197 254.082 76.613C253.869 75.653 253.762 74.6663 253.762 73.653V59.173C253.762 57.573 253.495 56.213 252.962 55.093C252.429 53.973 251.629 53.1197 250.562 52.533C249.495 51.893 248.189 51.573 246.642 51.573C245.095 51.573 243.762 51.893 242.642 52.533C241.522 53.173 240.642 54.053 240.002 55.173C239.415 56.293 239.122 57.6263 239.122 59.173V73.733C239.122 74.7463 239.015 75.733 238.802 76.693C238.642 77.5997 238.135 78.3197 237.282 78.853C236.482 79.3863 235.095 79.653 233.122 79.653Z" fill="#07124B"/>
</g>
<defs>
<clipPath id="clip0_116_92">
<rect width="288" height="109" fill="white"/>
</clipPath>
</defs>
</svg>
